# xmcd
#
# Track frame offsets:
#	150
#	13861
#	20284
#	28398
#	38118
#	53059
#	62301
#	69645
#	82312
#	90712
#	98961
#	104571
#	120517
#	130509
#	145074
#	154600
#	158558
#	168993
#	183070
#
# Disc length: 2553 seconds
#
# Revision: 0
# Processed by: cddbd v1.5.2PL0 Copyright (c) Steve Scherf et al.
# Submitted via: audiograbber 1.83.01
#
DISCID=f009f713
DTITLE=VARIOS - CELEBRAÇOES ESPECIAIS VOLUME 2
DYEAR=2006
DGENRE=LITURGICO
TTITLE0=CELEBRAÇÃO DA FORMATURA - Vamos! É primavera
TTITLE1=CELEBRAÇÃO DA FORMATURA - Nós te glorificamos
TTITLE2=CELEBRAÇÃO DA FORMATURA - Aleluia! Aleluia! É meu grito
TTITLE3=CELEBRAÇÃO DA FORMATURA - Eis a minha oferta
TTITLE4=CELEBRAÇÃO DA FORMATURA - Meu Cristo feito pão
TTITLE5=CELEBRAÇÃO DA FORMATURA - Estou partindo
TTITLE6=CELEBRAÇÃO DO CASAMENTO COM MISSA - Não sei se descobriste
TTITLE7=CELEBRAÇÃO DO CASAMENTO COM MISSA - Glória a Deus
TTITLE8=CELEBRAÇÃO DO CASAMENTO COM MISSA - Sou Bom Pastor
TTITLE9=CELEBRAÇÃO DO CASAMENTO COM MISSA - A vossa Palavra, Senhor
TTITLE10=CELEBRAÇÃO DO CASAMENTO COM MISSA - Senhos, nós te ofertamos
TTITLE11=CELEBRAÇÃO DO CASAMENTO COM MISSA - Eis meu corpo
TTITLE12=CELEBRAÇÃO DO CASAMENTO COM MISSA - Chegou a nossa vez
TTITLE13=CELEBRAÇÃO DO CASAMENTO SEM MISSA - Ave Maria
TTITLE14=CELEBRAÇÃO DE BODAS - Confiantes nas bondade de Deus
TTITLE15=CELEBRAÇÃO DE BODAS - Aleluia, Aleluia!
TTITLE16=CELEBRAÇÃO DE BODAS - Sabes, Senhor
TTITLE17=CELEBRAÇÃO DE BODAS - Procuro abrigo
TTITLE18=CELEBRAÇÃO DE BODAS - Irmão sol, com irmã luz
EXTD=
EXTT0=
EXTT1=
EXTT2=
EXTT3=
EXTT4=
EXTT5=
EXTT6=
EXTT7=
EXTT8=
EXTT9=
EXTT10=
EXTT11=
EXTT12=
EXTT13=
EXTT14=
EXTT15=
EXTT16=
EXTT17=
EXTT18=
PLAYORDER=
